<svg width="28" height="28" viewBox="0 0 28 28" fill="none" xmlns="http://www.w3.org/2000/svg">
<path d="M14 28C21.732 28 28 21.732 28 14C28 6.26801 21.732 0 14 0C6.26801 0 0 6.26801 0 14C0 21.732 6.26801 28 14 28Z" fill="#4A9162"/>
<path fill-rule="evenodd" clip-rule="evenodd" d="M22.5614 7.47571C23.2206 8.15696 23.2026 9.2436 22.5214 9.9028L11.8198 20.2571C11.1543 20.901 10.0982 20.901 9.43272 20.2571L5.15309 16.1163C4.47181 15.4571 4.45389 14.3705 5.11306 13.6892C5.77223 13.0079 6.85888 12.99 7.54015 13.6492L10.6262 16.6352L20.1343 7.43568C20.8155 6.77651 21.9022 6.79443 22.5614 7.47571Z" fill="white"/>
</svg>
